<?xml version="1.0" standalone="no"?>
<!DOCTYPE svg PUBLIC "-//W3C//DTD SVG 20010904//EN"
 "http://www.w3.org/TR/2001/REC-SVG-20010904/DTD/svg10.dtd">
<svg version="1.0" xmlns="http://www.w3.org/2000/svg"
 width="512.000000pt" height="512.000000pt" viewBox="0 0 512.000000 512.000000"
 preserveAspectRatio="xMidYMid meet">
<metadata>
Created by potrace 1.14, written by Peter Selinger 2001-2017
</metadata>
<g transform="translate(0.000000,512.000000) scale(0.100000,-0.100000)"
fill="#000000" stroke="none">
<path d="M2530 4603 c-19 -9 -42 -17 -50 -19 -8 -2 -23 -7 -35 -13 -11 -5 -72
-28 -135 -51 -63 -22 -120 -46 -127 -52 -7 -6 -13 -7 -13 -3 0 4 -6 2 -13 -4
-8 -6 -17 -8 -20 -4 -4 3 -7 0 -7 -7 0 -7 -3 -10 -6 -7 -4 3 -16 1 -28 -5 -11
-7 -24 -11 -28 -10 -5 1 -8 -2 -8 -8 0 -5 -5 -10 -11 -10 -17 0 -188 -84 -232
-114 -21 -14 -42 -26 -47 -26 -5 0 -14 -8 -19 -17 -6 -10 -11 -15 -11 -10 0 4
-37 -20 -82 -53 -94 -68 -272 -240 -359 -347 -101 -123 -207 -309 -281 -492
-30 -76 -84 -271 -93 -339 -3 -20 -9 -64 -14 -97 -7 -48 -8 -205 -2 -272 0 -7
1 -19 0 -25 -2 -33 28 -170 57 -256 19 -57 74 -166 116 -227 51 -75 69 -96
126 -146 14 -12 20 -36 25 -102 18 -233 98 -452 242 -667 104 -155 266 -298
392 -346 l45 -18 -4 -51 c-9 -111 -103 -191 -348 -298 -19 -8 -107 -45 -195
-82 -227 -95 -335 -146 -335 -159 0 -8 427 -11 1560 -10 858 0 1562 3 1565 6
8 8 -119 64 -435 193 -85 34 -182 75 -215 91 -71 33 -212 123 -239 152 -31 35
-45 93 -46 189 0 86 1 92 20 90 11 -1 20 -5 20 -9 0 -13 58 -39 65 -28 3 6 11
10 17 10 6 0 5 -7 -3 -17 -10 -11 -10 -14 -1 -9 7 4 12 2 12 -4 0 -7 7 -5 16
4 18 19 28 21 18 4 -5 -7 -2 -9 8 -6 8 4 15 1 15 -7 0 -7 -8 -10 -21 -7 -12 3
-18 1 -14 -3 5 -5 23 -8 42 -7 22 1 36 -4 40 -14 3 -9 12 -14 19 -11 6 2 19 1
27 -3 50 -26 269 -17 325 13 11 6 26 12 34 13 8 2 18 9 22 16 5 7 9 9 9 5 0
-11 80 34 80 45 0 5 5 6 10 3 6 -3 13 1 16 9 3 9 11 16 18 16 6 0 19 8 27 18
9 9 32 30 52 45 20 16 62 63 94 105 32 42 60 79 63 82 7 7 75 150 75 159 1 3
6 16 13 28 7 13 10 23 6 23 -3 0 -1 6 5 13 6 8 12 22 14 33 2 10 7 27 11 36 4
9 9 25 11 35 2 10 4 19 5 21 2 1 3 6 4 11 0 5 4 12 8 16 4 4 4 13 2 20 -3 7 0
16 5 20 6 3 9 11 6 16 -4 5 -3 15 2 22 9 14 11 25 18 87 2 25 7 61 10 80 25
151 25 560 0 650 -2 8 -6 29 -9 45 -2 17 -10 64 -16 105 -6 41 -16 87 -21 101
-6 14 -11 35 -12 47 -1 12 -4 22 -7 22 -3 0 -6 11 -6 25 -1 14 -5 33 -10 43
-4 9 -8 20 -9 25 -2 4 -4 10 -5 15 -4 14 -7 27 -8 45 -1 10 -6 16 -11 13 -5
-4 -8 2 -6 11 1 10 -2 27 -8 38 -6 11 -12 28 -14 38 -5 27 -45 121 -56 128 -5
3 -8 8 -6 10 1 2 -12 34 -30 71 -17 37 -31 72 -31 78 0 5 -4 10 -9 10 -5 0
-14 14 -20 32 -6 17 -19 40 -28 50 -9 10 -13 18 -9 18 4 0 -2 10 -13 22 -11
11 -18 24 -16 28 3 4 -2 13 -10 20 -8 7 -15 18 -16 24 0 6 -20 38 -44 71 -25
33 -60 83 -79 111 -20 29 -42 54 -51 58 -8 3 -15 10 -15 17 0 19 -204 230
-290 298 -23 19 -48 40 -54 45 -19 18 -75 56 -81 56 -4 0 -21 11 -38 24 -37
27 -98 62 -217 124 -90 46 -397 172 -422 172 -7 0 -18 4 -23 8 -19 16 -136 62
-158 62 -12 -1 -38 -8 -57 -17z m950 -3697 c0 -3 -4 -8 -10 -11 -5 -3 -10 -1
-10 4 0 6 5 11 10 11 6 0 10 -2 10 -4z m150 -13 c60 0 111 5 120 11 13 10 13
9 0 -8 -14 -18 -13 -19 3 -13 10 4 16 3 12 -2 -3 -6 -18 -9 -33 -7 -15 1 -33
-2 -39 -7 -7 -5 -30 -6 -50 -3 -21 4 -59 8 -85 9 -25 1 -44 5 -41 9 2 5 -3 8
-11 8 -9 0 -16 5 -16 10 0 7 6 7 18 2 9 -6 64 -9 122 -9z"/>
</g>
</svg>
